<svg width="50" height="50" viewBox="0 0 50 50" fill="none" xmlns="http://www.w3.org/2000/svg">
<path d="M24.7284 45C13.8561 45 5 36.0692 5 25C5 13.9308 13.8561 5 24.7284 5C35.6007 5 44.4568 13.9308 44.4568 25C44.4568 28.6605 43.9232 31.4764 42.4204 34.2269C42.1079 34.799 41.9394 35.5467 42.1402 36.3385C42.2952 36.9496 42.6224 38.0687 42.9941 39.3401C43.138 39.8322 43.2885 40.3471 43.4383 40.8642C43.784 42.0574 44.1304 43.2774 44.4112 44.3425C43.5413 44.164 42.5816 43.9744 41.6344 43.7873C41.3823 43.7375 41.1312 43.6879 40.8829 43.6387C38.989 43.2636 37.2988 42.921 36.4366 42.6913C35.7073 42.497 34.8856 42.5593 34.1551 42.9573C32.138 44.0565 30.9363 44.5207 29.7479 44.7506C28.4976 44.9924 27.1625 45 24.7284 45Z" stroke="#262626" stroke-width="4"/>
</svg>
