<svg width="50" height="50" viewBox="0 0 50 50" fill="none" xmlns="http://www.w3.org/2000/svg">
<mask id="path-1-inside-1_1_49" fill="white">
<path fill-rule="evenodd" clip-rule="evenodd" d="M16 2C8.26801 2 2 8.26801 2 16V34C2 41.732 8.26801 48 16 48H34C41.732 48 48 41.732 48 34V16C48 8.26801 41.732 2 34 2H16ZM23 15C23 13.8954 23.8954 13 25 13C26.1046 13 27 13.8954 27 15V23H35C36.1046 23 37 23.8954 37 25C37 26.1046 36.1046 27 35 27H27V35C27 36.1046 26.1046 37 25 37C23.8954 37 23 36.1046 23 35V27H15C13.8954 27 13 26.1046 13 25C13 23.8954 13.8954 23 15 23H23V15Z"/>
</mask>
<path fill-rule="evenodd" clip-rule="evenodd" d="M16 2C8.26801 2 2 8.26801 2 16V34C2 41.732 8.26801 48 16 48H34C41.732 48 48 41.732 48 34V16C48 8.26801 41.732 2 34 2H16ZM23 15C23 13.8954 23.8954 13 25 13C26.1046 13 27 13.8954 27 15V23H35C36.1046 23 37 23.8954 37 25C37 26.1046 36.1046 27 35 27H27V35C27 36.1046 26.1046 37 25 37C23.8954 37 23 36.1046 23 35V27H15C13.8954 27 13 26.1046 13 25C13 23.8954 13.8954 23 15 23H23V15Z" fill="#262626"/>
<path d="M27 23H23V27H27V23ZM27 27V23H23V27H27ZM23 27H27V23H23V27ZM23 23V27H27V23H23ZM6 16C6 10.4772 10.4772 6 16 6V-2C6.05887 -2 -2 6.05887 -2 16H6ZM6 34V16H-2V34H6ZM16 44C10.4772 44 6 39.5228 6 34H-2C-2 43.9411 6.05887 52 16 52V44ZM34 44H16V52H34V44ZM44 34C44 39.5228 39.5228 44 34 44V52C43.9411 52 52 43.9411 52 34H44ZM44 16V34H52V16H44ZM34 6C39.5228 6 44 10.4772 44 16H52C52 6.05887 43.9411 -2 34 -2V6ZM16 6H34V-2H16V6ZM25 9C21.6863 9 19 11.6863 19 15H27C27 16.1046 26.1046 17 25 17V9ZM31 15C31 11.6863 28.3137 9 25 9V17C23.8954 17 23 16.1046 23 15H31ZM31 23V15H23V23H31ZM35 19H27V27H35V19ZM41 25C41 21.6863 38.3137 19 35 19V27C33.8954 27 33 26.1046 33 25H41ZM35 31C38.3137 31 41 28.3137 41 25H33C33 23.8954 33.8954 23 35 23V31ZM27 31H35V23H27V31ZM31 35V27H23V35H31ZM25 41C28.3137 41 31 38.3137 31 35H23C23 33.8954 23.8954 33 25 33V41ZM19 35C19 38.3137 21.6863 41 25 41V33C26.1046 33 27 33.8954 27 35H19ZM19 27V35H27V27H19ZM15 31H23V23H15V31ZM9 25C9 28.3137 11.6863 31 15 31V23C16.1046 23 17 23.8954 17 25H9ZM15 19C11.6863 19 9 21.6863 9 25H17C17 26.1046 16.1046 27 15 27V19ZM23 19H15V27H23V19ZM19 15V23H27V15H19Z" fill="#262626" mask="url(#path-1-inside-1_1_49)"/>
</svg>
