<svg width="50" height="50" viewBox="0 0 50 50" fill="none" xmlns="http://www.w3.org/2000/svg">
<mask id="path-1-inside-1_18_2" fill="white">
<path d="M2 4.5C2 3.39543 2.89543 2.5 4 2.5H46C47.1046 2.5 48 3.39543 48 4.5V46.6202C48 47.4212 47.1054 47.8971 46.4411 47.4495L25.5589 33.3766C25.2211 33.149 24.7789 33.149 24.4411 33.3766L3.55885 47.4495C2.89464 47.8971 2 47.4212 2 46.6202V4.5Z"/>
</mask>
<path d="M3.55885 47.4495L5.23541 49.9373L3.55885 47.4495ZM46.4411 47.4495L44.7646 49.9373L46.4411 47.4495ZM4 5.5H46V-0.5H4V5.5ZM45 4.5V46.6202H51V4.5H45ZM5 46.6202V4.5H-1V46.6202H5ZM48.1177 44.9617L27.2354 30.8888L23.8823 35.8644L44.7646 49.9373L48.1177 44.9617ZM22.7646 30.8888L1.88229 44.9617L5.23541 49.9373L26.1177 35.8644L22.7646 30.8888ZM27.2354 30.8888C25.8842 29.9782 24.1158 29.9782 22.7646 30.8888L26.1177 35.8644C25.4421 36.3197 24.5579 36.3197 23.8823 35.8644L27.2354 30.8888ZM-1 46.6202C-1 49.8241 2.57857 51.7277 5.23541 49.9373L1.88229 44.9617C3.21071 44.0664 5 45.0183 5 46.6202H-1ZM45 46.6202C45 45.0183 46.7893 44.0664 48.1177 44.9617L44.7646 49.9373C47.4214 51.7278 51 49.824 51 46.6202H45ZM46 5.5C45.4477 5.5 45 5.05228 45 4.5H51C51 1.73858 48.7614 -0.5 46 -0.5V5.5ZM4 -0.5C1.23858 -0.5 -1 1.73857 -1 4.5H5C5 5.05229 4.55228 5.5 4 5.5V-0.5Z" fill="black" mask="url(#path-1-inside-1_18_2)"/>
</svg>
