<svg width="50" height="50" viewBox="0 0 50 50" fill="none" xmlns="http://www.w3.org/2000/svg">
<circle cx="25" cy="25" r="19.0833" stroke="#262626" stroke-width="4"/>
<path d="M19.7525 3.36754C20.0247 2.55086 20.789 2 21.6499 2H28.3501C29.211 2 29.9753 2.55086 30.2475 3.36754L30.75 4.875H19.25L19.7525 3.36754Z" fill="#262626"/>
<path d="M30.2475 46.6325C29.9753 47.4491 29.211 48 28.3501 48L21.6499 48C20.789 48 20.0247 47.4491 19.7525 46.6325L19.25 45.125L30.75 45.125L30.2475 46.6325Z" fill="#262626"/>
<path d="M37.0313 6.13193C37.8081 5.76088 38.7351 5.92853 39.3328 6.54812L43.9844 11.3706C44.5821 11.9902 44.7162 12.9227 44.3174 13.6856L43.5813 15.0938L35.5974 6.81682L37.0313 6.13193Z" fill="#262626"/>
<path d="M46.6325 19.7525C47.4491 20.0247 48 20.789 48 21.6499L48 28.3501C48 29.211 47.4491 29.9753 46.6325 30.2475L45.125 30.75L45.125 19.25L46.6325 19.7525Z" fill="#262626"/>
<path d="M43.4276 37.1451C43.7929 37.9246 43.6184 38.8504 42.9945 39.4435L38.138 44.0596C37.514 44.6526 36.5805 44.7799 35.8206 44.3755L34.4178 43.6291L42.7532 35.7063L43.4276 37.1451Z" fill="#262626"/>
<path d="M13.834 44.1586C13.073 44.5611 12.1399 44.4314 11.5175 43.8367L6.67284 39.2081C6.0504 38.6135 5.87832 37.6872 6.24566 36.9086L6.92369 35.4716L15.2387 43.4158L13.834 44.1586Z" fill="#262626"/>
<path d="M3.36754 30.2475C2.55086 29.9753 2 29.211 2 28.3501L2 21.6499C2 20.789 2.55086 20.0247 3.36754 19.7525L4.875 19.25L4.875 30.75L3.36754 30.2475Z" fill="#262626"/>
<path d="M6.29884 12.4395C5.94531 11.6527 6.13606 10.7279 6.77206 10.1451L11.6847 5.64408C12.3315 5.05152 13.2889 4.94953 14.046 5.39255L15.4792 6.23126L7 14L6.29884 12.4395Z" fill="#262626"/>
</svg>
