<svg width="154" height="67" viewBox="0 0 154 67" fill="none" xmlns="http://www.w3.org/2000/svg">
<path d="M22.7173 11.708C22.6813 11.744 22.6273 11.834 22.5553 11.978C22.5193 12.122 22.5013 12.374 22.5013 12.734C22.5013 13.238 22.5733 13.724 22.7173 14.192V32.066C22.7173 33.902 22.5373 35.666 22.1773 37.358C21.8173 39.05 21.1873 40.562 20.2873 41.894C19.4233 43.19 18.2173 44.216 16.6693 44.972C15.1573 45.764 13.2133 46.16 10.8373 46.16H10.1353C8.08327 46.16 6.40927 45.872 5.11327 45.296C3.85327 44.756 2.86327 44.054 2.14327 43.19C1.42327 42.326 0.937266 41.39 0.685266 40.382C0.433266 39.338 0.307266 38.348 0.307266 37.412C0.307266 36.62 0.415266 35.864 0.631266 35.144C0.811266 34.388 1.09927 33.74 1.49527 33.2C1.85527 32.624 2.30527 32.174 2.84527 31.85C3.38527 31.49 3.99727 31.31 4.68127 31.31C5.32927 31.31 5.74327 31.49 5.92327 31.85C6.10327 32.174 6.19327 32.516 6.19327 32.876C6.19327 33.668 6.03127 34.334 5.70727 34.874C5.38327 35.378 5.02327 35.828 4.62727 36.224C4.26727 36.62 3.92527 37.016 3.60127 37.412C3.27727 37.808 3.11527 38.294 3.11527 38.87C3.11527 40.598 3.69127 41.84 4.84327 42.596C5.99527 43.352 7.43527 43.73 9.16327 43.73C10.6753 43.73 11.9893 43.424 13.1053 42.812C14.2213 42.2 15.1393 41.426 15.8593 40.49C16.6153 39.554 17.1733 38.546 17.5333 37.466C17.8933 36.35 18.0733 35.306 18.0733 34.334L17.2633 34.388C15.9673 34.388 14.8333 34.1 13.8613 33.524C12.9253 32.912 12.1333 32.156 11.4853 31.256C10.8733 30.356 10.4053 29.384 10.0813 28.34C9.79327 27.296 9.64927 26.324 9.64927 25.424V23.534C9.64927 22.85 9.73927 22.058 9.91927 21.158C10.0993 20.222 10.3513 19.268 10.6753 18.296C10.9993 17.288 11.3953 16.316 11.8633 15.38C12.3313 14.408 12.8353 13.544 13.3753 12.788C13.9153 12.032 14.4913 11.42 15.1033 10.952C15.7153 10.484 16.3453 10.25 16.9933 10.25C17.2453 10.25 17.5333 10.304 17.8573 10.412L21.6373 10.682C21.8893 10.718 22.1233 10.808 22.3393 10.952C22.5913 11.096 22.7173 11.348 22.7173 11.708ZM18.0733 18.188C18.1453 17.9 18.2173 17.63 18.2893 17.378C18.3613 17.126 18.3973 16.838 18.3973 16.514C18.3973 16.046 18.2713 15.632 18.0193 15.272C17.8033 14.876 17.3893 14.678 16.7773 14.678C15.9853 14.678 15.3373 15.002 14.8333 15.65C14.3293 16.298 13.9333 17.072 13.6453 17.972C13.3933 18.872 13.2133 19.808 13.1053 20.78C12.9973 21.752 12.9433 22.544 12.9433 23.156C12.9433 23.624 12.9793 24.308 13.0513 25.208C13.1233 26.072 13.2853 26.936 13.5373 27.8C13.8253 28.664 14.2033 29.42 14.6713 30.068C15.1753 30.716 15.8413 31.04 16.6693 31.04C16.7413 31.04 16.9393 31.022 17.2633 30.986C17.6233 30.95 17.8933 30.896 18.0733 30.824V18.188ZM35.1065 32.228C34.5665 32.984 34.1165 33.83 33.7565 34.766C33.4325 35.666 33.1445 36.62 32.8925 37.628C32.6405 38.6 32.4245 39.59 32.2445 40.598C32.1005 41.57 31.9385 42.506 31.7585 43.406C31.6865 43.622 31.3985 43.766 30.8945 43.838C30.4265 43.91 30.0845 43.946 29.8685 43.946C29.2205 43.946 28.6805 43.91 28.2485 43.838C27.8525 43.766 27.5465 43.604 27.3305 43.352C27.1145 43.064 26.9525 42.65 26.8445 42.11C26.7365 41.534 26.6465 40.778 26.5745 39.842L27.2765 23.804C27.2765 23.336 27.5285 23.102 28.0325 23.102C28.2125 23.102 28.4645 23.138 28.7885 23.21C29.1125 23.246 29.4545 23.318 29.8145 23.426C30.1745 23.534 30.4805 23.678 30.7325 23.858C30.9845 24.002 31.1105 24.182 31.1105 24.398V35.36C31.1465 35.324 31.2005 35.18 31.2725 34.928C31.5245 34.28 31.8305 33.488 32.1905 32.552C32.5505 31.58 32.9465 30.662 33.3785 29.798C33.8105 28.934 34.2605 28.196 34.7285 27.584C35.2325 26.972 35.7365 26.666 36.2405 26.666C36.8885 26.666 37.3745 26.828 37.6985 27.152C38.0585 27.44 38.3285 27.818 38.5085 28.286C38.6885 28.754 38.7965 29.258 38.8325 29.798C38.8685 30.338 38.8865 30.86 38.8865 31.364C38.8865 31.724 38.8505 32.318 38.7785 33.146C38.7065 33.974 38.6705 35.216 38.6705 36.872C38.6705 37.808 38.7605 38.654 38.9405 39.41C39.1205 40.166 39.4805 40.544 40.0205 40.544C40.4165 40.544 40.7765 40.364 41.1005 40.004C41.4245 39.644 41.7125 39.194 41.9645 38.654C42.2525 38.114 42.4865 37.538 42.6665 36.926C42.8465 36.314 42.9545 35.738 42.9905 35.198C43.0265 34.514 43.2965 34.172 43.8005 34.172C44.1245 34.172 44.3405 34.28 44.4485 34.496C44.5565 34.712 44.6105 34.964 44.6105 35.252V35.36C44.5745 36.08 44.4305 36.89 44.1785 37.79C43.9625 38.69 43.6205 39.536 43.1525 40.328C42.7205 41.12 42.1445 41.786 41.4245 42.326C40.7045 42.866 39.8225 43.136 38.7785 43.136C37.1585 43.136 36.1145 42.56 35.6465 41.408C35.2145 40.22 34.9985 38.474 34.9985 36.17L35.1065 32.228ZM56.1496 40.652C56.1496 41.516 55.8616 42.182 55.2856 42.65C54.7096 43.118 54.0436 43.46 53.2876 43.676C52.5676 43.892 51.8296 44.018 51.0736 44.054C50.3536 44.126 49.8316 44.162 49.5076 44.162C49.0036 44.162 48.3736 44.108 47.6176 44C46.8976 43.892 46.1776 43.73 45.4576 43.514C44.7736 43.262 44.1796 42.92 43.6756 42.488C43.2076 42.056 42.9736 41.516 42.9736 40.868C42.9736 40.472 43.1176 40.202 43.4056 40.058C43.7296 39.878 44.0356 39.788 44.3236 39.788C44.7196 39.788 45.0976 39.932 45.4576 40.22C45.8536 40.508 46.2496 40.814 46.6456 41.138C47.0776 41.462 47.5456 41.768 48.0496 42.056C48.5536 42.344 49.1296 42.488 49.7776 42.488C50.0656 42.488 50.4436 42.398 50.9116 42.218C51.4156 42.002 51.6676 41.642 51.6676 41.138C51.6676 40.634 51.4516 40.148 51.0196 39.68C50.6236 39.212 50.1016 38.726 49.4536 38.222C48.8416 37.718 48.1756 37.196 47.4556 36.656C46.7356 36.116 46.0516 35.54 45.4036 34.928C44.7916 34.28 44.2696 33.578 43.8376 32.822C43.4416 32.066 43.2436 31.238 43.2436 30.338C43.2436 29.078 43.6396 28.016 44.4316 27.152C45.2596 26.288 46.2136 25.604 47.2936 25.1C48.4096 24.596 49.5436 24.236 50.6956 24.02C51.8476 23.804 52.7476 23.696 53.3956 23.696C54.0076 23.696 54.6196 23.822 55.2316 24.074C55.8436 24.326 56.1496 24.812 56.1496 25.532C56.1496 25.748 56.0956 26.072 55.9876 26.504C55.9156 26.9 55.7716 27.296 55.5556 27.692C55.3756 28.088 55.1236 28.448 54.7996 28.772C54.4756 29.06 54.0616 29.204 53.5576 29.204C53.4136 29.204 53.2696 29.15 53.1256 29.042C52.9816 28.898 52.8196 28.754 52.6396 28.61C52.4596 28.43 52.2616 28.286 52.0456 28.178C51.8656 28.034 51.6496 27.962 51.3976 27.962C50.1376 27.962 49.2556 28.34 48.7516 29.096C48.2476 29.816 47.9956 30.59 47.9956 31.418C47.9956 32.138 48.4096 32.894 49.2376 33.686C50.1016 34.478 51.0376 35.27 52.0456 36.062C53.0896 36.854 54.0256 37.646 54.8536 38.438C55.7176 39.194 56.1496 39.932 56.1496 40.652ZM57.3127 34.226C57.3487 32.39 57.4027 30.518 57.4747 28.61C57.5467 26.702 57.6187 24.938 57.6907 23.318C57.6907 23.03 57.4027 22.832 56.8267 22.724C56.2507 22.616 55.6027 22.508 54.8827 22.4C54.1627 22.292 53.5147 22.13 52.9387 21.914C52.3627 21.662 52.0747 21.266 52.0747 20.726C52.0747 20.258 52.5427 19.988 53.4787 19.916C54.4147 19.844 55.8007 19.808 57.6367 19.808C57.7807 19.808 57.8707 19.592 57.9067 19.16C57.9787 18.728 58.0147 18.188 58.0147 17.54C58.0507 16.856 58.0687 16.136 58.0687 15.38C58.1047 14.624 58.1407 13.922 58.1767 13.274C58.2127 12.59 58.2667 12.032 58.3387 11.6C58.4467 11.168 58.5727 10.952 58.7167 10.952C58.8967 10.952 59.2207 10.988 59.6887 11.06C60.1567 11.132 60.6427 11.24 61.1467 11.384C61.6507 11.492 62.0827 11.636 62.4427 11.816C62.8387 11.996 63.0367 12.194 63.0367 12.41L62.4427 19.43C62.4427 19.646 62.6227 19.808 62.9827 19.916C63.3787 19.988 63.8647 20.042 64.4407 20.078C65.0527 20.078 65.6827 20.078 66.3307 20.078C67.0147 20.078 67.6447 20.132 68.2207 20.24C68.8327 20.348 69.3187 20.528 69.6787 20.78C70.0747 20.996 70.2727 21.338 70.2727 21.806C70.2727 21.878 70.2367 22.004 70.1647 22.184C70.0927 22.328 70.0027 22.4 69.8947 22.4C69.8227 22.4 69.7147 22.346 69.5707 22.238C69.4627 22.13 69.1387 22.076 68.5987 22.076C68.4547 22.076 68.0587 22.094 67.4107 22.13C66.7627 22.166 66.0787 22.22 65.3587 22.292C64.6387 22.364 63.9727 22.454 63.3607 22.562C62.7847 22.634 62.4607 22.742 62.3887 22.886C62.3527 22.958 62.2987 23.39 62.2267 24.182C62.1907 24.938 62.1367 25.946 62.0647 27.206C62.0287 28.466 61.9927 29.924 61.9567 31.58C61.9207 33.2 61.9027 34.91 61.9027 36.71C61.9027 37.394 61.9387 38.06 62.0107 38.708C62.0827 39.356 62.1907 39.95 62.3347 40.49C62.4787 40.994 62.6587 41.408 62.8747 41.732C63.1267 42.056 63.4147 42.218 63.7387 42.218C64.2067 42.218 64.6387 42.02 65.0347 41.624C65.4307 41.228 65.7907 40.688 66.1147 40.004C66.4387 39.32 66.7267 38.546 66.9787 37.682C67.2307 36.818 67.4467 35.936 67.6267 35.036C67.7347 34.496 67.8607 34.118 68.0047 33.902C68.1487 33.65 68.3647 33.524 68.6527 33.524C68.9047 33.524 69.1207 33.614 69.3007 33.794C69.5167 33.938 69.6247 34.298 69.6247 34.874C69.6247 35.234 69.6067 35.468 69.5707 35.576C69.4627 36.224 69.2467 37.124 68.9227 38.276C68.6347 39.392 68.2207 40.508 67.6807 41.624C67.1767 42.704 66.5467 43.658 65.7907 44.486C65.0347 45.314 64.1527 45.728 63.1447 45.728C62.1727 45.728 61.3267 45.44 60.6067 44.864C59.8867 44.324 59.2747 43.568 58.7707 42.596C58.3027 41.588 57.9427 40.418 57.6907 39.086C57.4387 37.718 57.3127 36.26 57.3127 34.712V34.226ZM89.3575 38.114C89.2855 38.618 89.1055 39.212 88.8175 39.896C88.5295 40.58 88.1515 41.246 87.6835 41.894C87.2515 42.506 86.7295 43.028 86.1175 43.46C85.5415 43.892 84.8935 44.108 84.1735 44.108C83.0935 44.108 82.1395 43.694 81.3115 42.866C80.5195 42.038 80.0335 40.868 79.8535 39.356C79.6375 39.932 79.3855 40.598 79.0975 41.354C78.8095 42.11 78.4495 42.812 78.0175 43.46C77.5855 44.108 77.0815 44.648 76.5055 45.08C75.9655 45.548 75.3175 45.782 74.5615 45.782C74.3455 45.782 74.1835 45.764 74.0755 45.728C73.9675 45.692 73.8415 45.638 73.6975 45.566C73.5895 45.53 73.4455 45.494 73.2655 45.458C73.1215 45.422 72.9055 45.404 72.6175 45.404C71.7535 45.404 71.0155 45.116 70.4035 44.54C69.8275 44 69.3595 43.298 68.9995 42.434C68.6395 41.57 68.3695 40.634 68.1895 39.626C68.0455 38.582 67.9735 37.61 67.9735 36.71C67.9735 34.55 68.0815 32.498 68.2975 30.554C68.5495 28.61 68.9455 26.9 69.4855 25.424C70.0255 23.912 70.7275 22.724 71.5915 21.86C72.4555 20.96 73.4995 20.51 74.7235 20.51C75.4435 20.51 75.9835 20.582 76.3435 20.726C76.7395 20.834 77.0995 20.978 77.4235 21.158C77.7475 21.302 78.0895 21.464 78.4495 21.644C78.8455 21.824 79.3855 21.968 80.0695 22.076C80.8255 22.508 81.3475 23.03 81.6355 23.642C81.9595 24.218 82.1575 24.848 82.2295 25.532C82.3375 26.216 82.3735 26.936 82.3375 27.692C82.3015 28.412 82.3375 29.132 82.4455 29.852C82.4455 29.888 82.5175 29.942 82.6615 30.014C82.8415 30.086 83.0395 30.176 83.2555 30.284C83.4715 30.356 83.6515 30.482 83.7955 30.662C83.9755 30.806 84.0655 31.004 84.0655 31.256V31.472C83.7055 32.408 83.4895 33.236 83.4175 33.956C83.3455 34.676 83.3095 35.54 83.3095 36.548C83.3095 37.052 83.3275 37.61 83.3635 38.222C83.4355 38.798 83.5255 39.356 83.6335 39.896C83.7775 40.4 83.9755 40.832 84.2275 41.192C84.4795 41.516 84.8035 41.678 85.1995 41.678C85.6315 41.678 86.0095 41.462 86.3335 41.03C86.6935 40.598 86.9815 40.112 87.1975 39.572C87.4495 38.996 87.6475 38.42 87.7915 37.844C87.9715 37.268 88.0795 36.836 88.1155 36.548C88.1875 36.116 88.3675 35.9 88.6555 35.9C88.8355 35.9 88.9975 36.008 89.1415 36.224C89.3215 36.404 89.4115 36.746 89.4115 37.25C89.4115 37.394 89.4115 37.538 89.4115 37.682C89.4115 37.79 89.3935 37.934 89.3575 38.114ZM79.3675 29.366C79.3675 28.97 79.3315 28.502 79.2595 27.962C79.1875 27.422 79.0615 26.918 78.8815 26.45C78.7015 25.982 78.4315 25.586 78.0715 25.262C77.7115 24.938 77.2255 24.776 76.6135 24.776C75.6055 24.776 74.7775 25.244 74.1295 26.18C73.5175 27.08 73.0315 28.16 72.6715 29.42C72.3115 30.644 72.0775 31.922 71.9695 33.254C71.8615 34.55 71.8075 35.576 71.8075 36.332C71.8075 36.908 71.8255 37.61 71.8615 38.438C71.9335 39.23 72.0415 39.986 72.1855 40.706C72.3295 41.426 72.5275 42.038 72.7795 42.542C73.0675 43.046 73.4275 43.298 73.8595 43.298C74.9035 43.298 75.6955 42.902 76.2355 42.11C76.8115 41.282 77.2435 40.274 77.5315 39.086C77.8195 37.862 78.0175 36.566 78.1255 35.198C78.2695 33.794 78.3955 32.516 78.5035 31.364C78.5755 30.752 78.7375 30.374 78.9895 30.23C79.2415 30.05 79.3675 29.924 79.3675 29.852V29.366ZM105.681 45.404C105.681 45.764 105.519 46.016 105.195 46.16C104.871 46.304 104.565 46.376 104.277 46.376L103.197 46.268C103.017 46.268 102.927 46.376 102.927 46.592L102.873 47.24C102.909 48.212 102.927 49.436 102.927 50.912C102.927 52.388 102.927 53.81 102.927 55.178C102.927 56.618 102.873 58.022 102.765 59.39C102.693 60.794 102.495 62.036 102.171 63.116C101.847 64.232 101.379 65.114 100.767 65.762C100.191 66.446 99.3807 66.788 98.3367 66.788C97.4367 66.788 96.4827 66.734 95.4747 66.626C94.5027 66.554 93.6027 66.338 92.7747 65.978C91.9827 65.618 91.3167 65.078 90.7767 64.358C90.2727 63.674 90.0207 62.738 90.0207 61.55C90.0207 60.362 90.1467 59.138 90.3987 57.878C90.6867 56.654 91.0827 55.448 91.5867 54.26C92.0907 53.108 92.6847 51.992 93.3687 50.912C94.0887 49.868 94.8627 48.932 95.6907 48.104C96.1227 47.672 96.5907 47.222 97.0947 46.754C97.6347 46.322 98.1027 45.962 98.4987 45.674V45.62C98.5707 44.864 98.6247 44.108 98.6607 43.352C98.6967 42.596 98.7147 41.822 98.7147 41.03C98.5347 41.354 98.3187 41.804 98.0667 42.38C97.8147 42.92 97.5087 43.442 97.1487 43.946C96.8247 44.45 96.4467 44.882 96.0147 45.242C95.5827 45.638 95.0967 45.836 94.5567 45.836C94.2687 45.836 94.0167 45.782 93.8007 45.674C93.5847 45.566 93.2787 45.512 92.8827 45.512C91.8747 45.44 91.0287 45.17 90.3447 44.702C89.6967 44.234 89.1747 43.586 88.7787 42.758C88.4187 41.93 88.1667 40.958 88.0227 39.842C87.8787 38.69 87.8067 37.412 87.8067 36.008C87.8067 34.316 87.8967 32.57 88.0767 30.77C88.2927 28.97 88.6527 27.332 89.1567 25.856C89.6607 24.344 90.3267 23.12 91.1547 22.184C92.0187 21.212 93.0987 20.726 94.3947 20.726C94.5387 20.726 94.7187 20.78 94.9347 20.888C95.1867 20.996 95.4387 21.122 95.6907 21.266C95.9787 21.374 96.2487 21.5 96.5007 21.644C96.7887 21.752 97.0047 21.824 97.1487 21.86C97.8687 22.004 98.5347 22.184 99.1467 22.4C99.7587 22.616 100.281 22.904 100.713 23.264C101.145 23.588 101.487 24.038 101.739 24.614C101.991 25.154 102.117 25.838 102.117 26.666C102.117 27.242 102.063 27.764 101.955 28.232C101.883 28.7 101.847 29.294 101.847 30.014C101.847 30.302 101.955 30.5 102.171 30.608C102.387 30.716 102.621 30.806 102.873 30.878C103.161 30.95 103.413 31.04 103.629 31.148C103.845 31.22 103.953 31.4 103.953 31.688C103.953 31.76 103.863 31.94 103.683 32.228C103.539 32.48 103.449 32.642 103.413 32.714C103.305 33.002 103.215 33.47 103.143 34.118C103.071 34.73 103.017 35.414 102.981 36.17C102.945 36.89 102.909 37.646 102.873 38.438C102.873 39.194 102.873 39.878 102.873 40.49C102.873 40.958 102.873 41.588 102.873 42.38C102.873 43.136 102.891 43.766 102.927 44.27H103.143C103.215 44.27 103.287 44.252 103.359 44.216C103.431 44.216 103.485 44.216 103.521 44.216C103.845 44.216 104.277 44.306 104.817 44.486C105.393 44.702 105.681 45.008 105.681 45.404ZM98.7687 28.718C98.7687 28.322 98.7327 27.872 98.6607 27.368C98.5887 26.864 98.4627 26.396 98.2827 25.964C98.1027 25.496 97.8327 25.118 97.4727 24.83C97.1487 24.506 96.7347 24.344 96.2307 24.344C95.5467 24.344 94.8987 24.614 94.2867 25.154C93.7107 25.694 93.1887 26.468 92.7207 27.476C92.2887 28.448 91.9287 29.654 91.6407 31.094C91.3887 32.498 91.2627 34.1 91.2627 35.9C91.2627 36.656 91.2807 37.448 91.3167 38.276C91.3887 39.068 91.4787 39.788 91.5867 40.436C91.7307 41.084 91.9287 41.624 92.1807 42.056C92.4687 42.488 92.8287 42.704 93.2607 42.704C94.0167 42.704 94.6827 42.38 95.2587 41.732C95.8347 41.084 96.3027 40.292 96.6627 39.356C97.0587 38.384 97.3467 37.394 97.5267 36.386C97.7427 35.342 97.8687 34.442 97.9047 33.686C97.9407 32.642 97.9947 31.94 98.0667 31.58C98.1387 31.184 98.2107 30.932 98.2827 30.824C98.4987 30.536 98.6247 30.194 98.6607 29.798C98.7327 29.402 98.7687 29.042 98.7687 28.718ZM98.5527 47.51C97.7247 48.086 96.9327 48.896 96.1767 49.94C95.4567 50.984 94.8267 52.118 94.2867 53.342C93.7467 54.566 93.3147 55.808 92.9907 57.068C92.7027 58.328 92.5587 59.462 92.5587 60.47C92.5587 60.83 92.5947 61.226 92.6667 61.658C92.7387 62.09 92.8467 62.486 92.9907 62.846C93.1707 63.242 93.4047 63.566 93.6927 63.818C94.0167 64.07 94.3947 64.196 94.8267 64.196C95.5827 64.196 96.1947 63.872 96.6627 63.224C97.1667 62.612 97.5447 61.874 97.7967 61.01C98.0847 60.146 98.2647 59.264 98.3367 58.364C98.4447 57.464 98.4987 56.744 98.4987 56.204C98.4987 56.096 98.4987 55.934 98.4987 55.718C98.4987 55.502 98.4987 55.088 98.4987 54.476C98.5347 53.864 98.5527 53 98.5527 51.884C98.5527 50.804 98.5527 49.346 98.5527 47.51ZM121.803 36.386C121.803 36.638 121.713 37.25 121.533 38.222C121.389 39.158 121.101 40.166 120.669 41.246C120.273 42.29 119.715 43.226 118.995 44.054C118.311 44.882 117.429 45.296 116.349 45.296C115.197 45.296 114.279 44.882 113.595 44.054C112.911 43.262 112.389 42.308 112.029 41.192C111.669 40.04 111.435 38.852 111.327 37.628C111.219 36.368 111.165 35.324 111.165 34.496C111.165 33.56 111.219 32.624 111.327 31.688C111.435 30.716 111.507 29.762 111.543 28.826C111.543 28.538 111.399 28.358 111.111 28.286C110.823 28.214 110.553 28.178 110.301 28.178C109.869 28.178 109.599 28.232 109.491 28.34C109.383 28.448 109.311 28.574 109.275 28.718L109.059 30.446C108.915 31.598 108.753 32.714 108.573 33.794C108.429 34.838 108.249 35.774 108.033 36.602C107.853 37.394 107.619 38.042 107.331 38.546C107.079 39.014 106.773 39.248 106.413 39.248H106.359C106.215 39.248 106.071 39.212 105.927 39.14C105.819 39.068 105.765 38.888 105.765 38.6C105.765 38.456 105.801 38.24 105.873 37.952C106.161 36.692 106.341 35.648 106.413 34.82C106.485 33.992 106.539 33.254 106.575 32.606V32.228C106.575 32.048 106.575 31.832 106.575 31.58C106.611 31.328 106.629 31.022 106.629 30.662V29.258C106.629 28.862 106.629 28.448 106.629 28.016C106.629 27.584 106.593 27.116 106.521 26.612L106.359 23.426C106.359 23.21 106.449 23.012 106.629 22.832C106.809 22.652 107.043 22.49 107.331 22.346C107.619 22.202 107.925 22.094 108.249 22.022C108.573 21.95 108.861 21.914 109.113 21.914C109.725 21.914 110.031 22.31 110.031 23.102V23.372L109.977 24.56V24.884C109.977 25.136 110.031 25.298 110.139 25.37C110.247 25.406 110.463 25.46 110.787 25.532H110.949C111.237 25.568 111.705 25.604 112.353 25.64C113.001 25.676 113.649 25.748 114.297 25.856C114.945 25.964 115.503 26.144 115.971 26.396C116.475 26.612 116.727 26.936 116.727 27.368C116.727 27.512 116.691 27.728 116.619 28.016C116.547 28.268 116.457 28.538 116.349 28.826C116.241 29.078 116.151 29.312 116.079 29.528C116.007 29.744 115.971 29.888 115.971 29.96C115.323 32.444 114.999 35.036 114.999 37.736C114.999 37.952 115.017 38.348 115.053 38.924C115.089 39.5 115.161 40.094 115.269 40.706C115.377 41.318 115.539 41.858 115.755 42.326C115.971 42.794 116.241 43.028 116.565 43.028C117.105 43.028 117.591 42.704 118.023 42.056C118.455 41.372 118.833 40.598 119.157 39.734C119.481 38.834 119.733 37.934 119.913 37.034C120.129 36.134 120.273 35.468 120.345 35.036C120.417 34.64 120.525 34.406 120.669 34.334C120.849 34.226 121.011 34.172 121.155 34.172C121.659 34.172 121.911 34.496 121.911 35.144C121.911 35.216 121.893 35.414 121.857 35.738C121.857 36.026 121.839 36.242 121.803 36.386ZM127.469 18.998C127.469 19.25 127.343 19.466 127.091 19.646C126.839 19.79 126.551 19.898 126.227 19.97C125.939 20.042 125.651 20.096 125.363 20.132C125.075 20.168 124.895 20.186 124.823 20.186C124.067 20.186 123.311 19.97 122.555 19.538C121.835 19.106 121.169 18.422 120.557 17.486C120.485 17.378 120.377 17.234 120.233 17.054C120.089 16.874 120.017 16.748 120.017 16.676C120.017 16.496 120.143 16.334 120.395 16.19C120.683 16.046 120.989 15.902 121.313 15.758C121.673 15.614 121.997 15.506 122.285 15.434C122.609 15.362 122.825 15.326 122.933 15.326C123.653 15.326 124.355 15.506 125.039 15.866C125.759 16.226 126.335 16.892 126.767 17.864C126.839 17.972 126.965 18.17 127.145 18.458C127.361 18.71 127.469 18.89 127.469 18.998ZM132.977 35.36C132.869 36.224 132.671 37.124 132.383 38.06C132.095 38.996 131.681 39.878 131.141 40.706C130.637 41.498 129.989 42.164 129.197 42.704C128.405 43.208 127.433 43.46 126.281 43.46C125.381 43.46 124.463 43.154 123.527 42.542C122.591 41.894 121.943 41.048 121.583 40.004C121.259 38.96 121.097 37.952 121.097 36.98C121.097 36.692 121.115 36.26 121.151 35.684C121.187 35.108 121.205 34.406 121.205 33.578V27.638C121.205 27.35 121.187 27.044 121.151 26.72C121.151 26.396 121.115 26.09 121.043 25.802C121.007 25.658 120.935 25.496 120.827 25.316C120.755 25.136 120.719 25.01 120.719 24.938C120.719 24.794 120.809 24.686 120.989 24.614C121.169 24.506 121.367 24.434 121.583 24.398C121.799 24.362 121.997 24.344 122.177 24.344C122.393 24.344 122.501 24.344 122.501 24.344C122.609 24.344 122.861 24.362 123.257 24.398C123.653 24.398 124.067 24.452 124.499 24.56C124.931 24.668 125.309 24.848 125.633 25.1C125.993 25.316 126.173 25.64 126.173 26.072C126.209 26.18 126.137 26.378 125.957 26.666C125.813 26.954 125.669 27.458 125.525 28.178C125.489 28.466 125.453 28.736 125.417 28.988C125.381 29.204 125.345 29.456 125.309 29.744C125.273 30.032 125.237 30.392 125.201 30.824C125.165 31.22 125.129 31.742 125.093 32.39V35.63C125.093 36.206 125.111 36.8 125.147 37.412C125.183 37.988 125.255 38.528 125.363 39.032C125.507 39.5 125.723 39.896 126.011 40.22C126.299 40.508 126.677 40.652 127.145 40.652C127.829 40.652 128.369 40.454 128.765 40.058C129.161 39.662 129.467 39.32 129.683 39.032C130.079 38.492 130.385 37.826 130.601 37.034C130.817 36.206 131.015 35.36 131.195 34.496L131.303 33.956C131.411 33.416 131.735 33.146 132.275 33.146C132.815 33.146 133.085 33.524 133.085 34.28V34.55L132.977 35.36ZM153.449 34.766C153.377 35.558 153.215 36.458 152.963 37.466C152.747 38.474 152.405 39.428 151.937 40.328C151.505 41.228 150.911 41.984 150.155 42.596C149.435 43.208 148.553 43.514 147.509 43.514C145.961 43.514 144.827 43.154 144.107 42.434C143.423 41.714 142.847 40.598 142.379 39.086L142.325 39.356C142.181 39.932 142.001 40.562 141.785 41.246C141.605 41.93 141.335 42.56 140.975 43.136C140.651 43.676 140.237 44.126 139.733 44.486C139.229 44.882 138.581 45.08 137.789 45.08C137.249 45.08 136.709 44.972 136.169 44.756C135.665 44.576 135.125 44.342 134.549 44.054C133.721 43.622 133.073 43.046 132.605 42.326C132.137 41.606 131.795 40.868 131.579 40.112C131.363 39.356 131.237 38.636 131.201 37.952C131.165 37.232 131.147 36.674 131.147 36.278V35.36C131.147 35.144 131.201 34.676 131.309 33.956C131.417 33.236 131.579 32.408 131.795 31.472C132.047 30.5 132.335 29.492 132.659 28.448C133.019 27.404 133.433 26.45 133.901 25.586C134.405 24.722 134.963 24.002 135.575 23.426C136.223 22.85 136.943 22.562 137.735 22.562C138.599 22.562 139.427 22.706 140.219 22.994C141.047 23.282 141.641 23.498 142.001 23.642C142.037 22.994 142.055 22.202 142.055 21.266C142.091 20.33 142.109 19.412 142.109 18.512C142.145 17.576 142.163 16.712 142.163 15.92C142.163 15.128 142.163 14.534 142.163 14.138C142.163 13.202 142.145 12.41 142.109 11.762C142.073 11.078 142.001 10.502 141.893 10.034C141.821 9.566 141.731 9.188 141.623 8.9C141.515 8.612 141.389 8.36 141.245 8.144C141.857 7.964 142.451 7.838 143.027 7.766C143.639 7.694 144.197 7.658 144.701 7.658C145.529 7.658 146.159 7.73 146.591 7.874C147.059 7.982 147.293 8.288 147.293 8.792C147.293 9.008 147.239 9.638 147.131 10.682C147.023 11.726 146.915 13.094 146.807 14.786C146.699 16.442 146.591 18.368 146.483 20.564C146.375 22.76 146.321 25.1 146.321 27.584V33.038C146.321 34.046 146.339 35.018 146.375 35.954C146.411 36.854 146.483 37.664 146.591 38.384C146.735 39.068 146.933 39.626 147.185 40.058C147.437 40.454 147.797 40.652 148.265 40.652C149.309 40.652 150.083 40.058 150.587 38.87C151.127 37.646 151.559 35.738 151.883 33.146C151.919 32.858 151.991 32.606 152.099 32.39C152.207 32.174 152.441 32.066 152.801 32.066C153.125 32.066 153.323 32.282 153.395 32.714C153.503 33.11 153.539 33.506 153.503 33.902L153.449 34.766ZM142.055 26.936C142.055 26.828 141.965 26.702 141.785 26.558C141.641 26.414 141.443 26.27 141.191 26.126C140.975 25.982 140.741 25.856 140.489 25.748C140.237 25.64 140.021 25.586 139.841 25.586C139.121 25.586 138.473 26.036 137.897 26.936C137.357 27.8 136.889 28.88 136.493 30.176C136.133 31.472 135.863 32.858 135.683 34.334C135.503 35.81 135.413 37.124 135.413 38.276C135.413 38.708 135.431 39.212 135.467 39.788C135.503 40.364 135.593 40.904 135.737 41.408C135.881 41.912 136.079 42.344 136.331 42.704C136.583 43.064 136.925 43.244 137.357 43.244C137.825 43.244 138.257 42.974 138.653 42.434C139.049 41.894 139.409 41.192 139.733 40.328C140.057 39.464 140.345 38.492 140.597 37.412C140.885 36.332 141.119 35.27 141.299 34.226C141.515 33.146 141.677 32.138 141.785 31.202C141.893 30.23 141.965 29.456 142.001 28.88L142.055 26.936Z" fill="black"/>
</svg>
